<svg width="100" height="101" viewBox="0 0 100 101" fill="none" xmlns="http://www.w3.org/2000/svg">
<circle cx="50" cy="50.1387" r="50" fill="#8D93A5" fill-opacity="0.03"/>
<circle cx="50" cy="50.1387" r="36" fill="#8D93A5" fill-opacity="0.05"/>
<circle cx="50" cy="50.1387" r="25" fill="#1C274C"/>
<path d="M40.9336 48.2051H48.0664V41.0723C48.0664 40.0044 48.9321 39.1387 50 39.1387C51.0679 39.1387 51.9336 40.0044 51.9336 41.0723V48.2051H59.0664C60.1343 48.2051 61 49.0708 61 50.1387C61 51.2066 60.1343 52.0723 59.0664 52.0723H51.9336V59.2051C51.9336 60.273 51.0679 61.1387 50 61.1387C48.9321 61.1387 48.0664 60.273 48.0664 59.2051V52.0723H40.9336C39.8657 52.0723 39 51.2066 39 50.1387C39 49.0708 39.8657 48.2051 40.9336 48.2051Z" fill="white"/>
</svg>
