<svg width="21" height="19" viewBox="0 0 21 19" fill="none" xmlns="http://www.w3.org/2000/svg">
<path d="M19.4151 7.8628C19.3308 7.84913 19.2455 7.84282 19.1602 7.84392H4.63207L4.94886 7.69658C5.25851 7.55002 5.54021 7.35055 5.78135 7.10721L9.8554 3.03315C10.392 2.52095 10.4821 1.69698 10.0691 1.08085C9.5883 0.424296 8.66634 0.281742 8.00974 0.762496C7.9567 0.801358 7.90628 0.843719 7.8589 0.889304L0.491713 8.25649C-0.084032 8.83159 -0.0845385 9.7645 0.490562 10.3402C0.490931 10.3406 0.491345 10.341 0.491713 10.3414L7.8589 17.7086C8.4351 18.2832 9.36802 18.2819 9.94266 17.7057C9.98787 17.6603 10.0301 17.6121 10.0691 17.5612C10.4821 16.9451 10.392 16.1211 9.8554 15.6089L5.78872 11.5275C5.57254 11.3111 5.32399 11.1296 5.052 10.9897L4.60997 10.7908H19.0791C19.8318 10.8187 20.4922 10.293 20.6336 9.55311C20.7639 8.74986 20.2183 7.99311 19.4151 7.8628Z" fill="black"/>
</svg>
