<svg width="24" height="24" viewBox="0 0 24 24" fill="none" xmlns="http://www.w3.org/2000/svg">
<path d="M5.94912 0C6.44989 0 6.85585 0.381685 6.85585 0.852511V2.57219C7.66015 2.55752 8.56169 2.55752 9.57607 2.55752H14.412C15.4264 2.55752 16.328 2.55752 17.1323 2.57219V0.852511C17.1323 0.381685 17.5382 0 18.0389 0C18.5398 0 18.9457 0.381685 18.9457 0.852511V2.64761C20.6859 2.77862 21.8282 3.10015 22.6675 3.88923C23.5068 4.6783 23.8487 5.75235 23.9881 7.3884V8.6198H0V7.3884C0.139347 5.75235 0.481321 4.6783 1.32059 3.88923C2.15987 3.10015 3.30223 2.77862 5.04237 2.64761V0.852511C5.04237 0.381685 5.44833 0 5.94912 0Z" fill="#1C274C"/>
<path opacity="0.5" d="M24 14.1488V11.686C24 10.6529 23.9848 8.81104 23.9693 7.99182H0.0189696C0.0034973 8.81104 0.0187057 10.6529 0.0187057 11.686V14.1488C0.0187057 18.7927 0.0187055 21.1147 1.4235 22.5573C2.8283 24 5.08927 24 9.61125 24H14.4075C18.9294 24 21.1904 24 22.5953 22.5573C24 21.1147 24 18.7927 24 14.1488Z" fill="#1C274C"/>
<path d="M19.1905 17.8553C19.1905 18.8754 18.385 19.7024 17.3914 19.7024C16.3978 19.7024 15.5923 18.8754 15.5923 17.8553C15.5923 16.8352 16.3978 16.0082 17.3914 16.0082C18.385 16.0082 19.1905 16.8352 19.1905 17.8553Z" fill="#1C274C"/>
</svg>
