<svg width="23" height="23" viewBox="0 0 23 23" fill="none" xmlns="http://www.w3.org/2000/svg">
<path fill-rule="evenodd" clip-rule="evenodd" d="M5.99992 0.333313C2.87031 0.333313 0.333252 2.87037 0.333252 5.99998V17.3333C0.333252 20.4629 2.87031 23 5.99992 23H17.3333C20.4629 23 22.9999 20.4629 22.9999 17.3333V5.99998C22.9999 2.87037 20.4629 0.333313 17.3333 0.333313H5.99992ZM16.9255 7.39603C17.4064 7.79674 17.4713 8.51137 17.0706 8.99223L11.4039 15.7922C11.2061 16.0297 10.9198 16.176 10.6116 16.1973C10.3032 16.2187 9.99957 16.1132 9.77087 15.9053L6.3709 12.8144C5.90776 12.3934 5.87362 11.6765 6.29467 11.2134C6.7157 10.7502 7.43248 10.7161 7.89563 11.1372L10.4202 13.4322L15.3293 7.54114C15.7301 7.06029 16.4446 6.99533 16.9255 7.39603Z" fill="#1C274C"/>
</svg>
