<svg width="36" height="36" viewBox="0 0 36 36" fill="none" xmlns="http://www.w3.org/2000/svg">
<path d="M12.9618 17.4194C12.9618 17.1893 13.0583 16.9592 13.2509 16.7838L19.3142 11.2634C19.6999 10.9122 20.3253 10.9122 20.7108 11.2634C21.0964 11.6144 21.0964 12.1837 20.7108 12.5349L15.3457 17.4194L20.7107 22.304C21.0962 22.6551 21.0962 23.2243 20.7107 23.5753C20.3251 23.9267 19.6998 23.9267 19.314 23.5753L13.2507 18.055C13.0581 17.8795 12.9618 17.6494 12.9618 17.4194V17.4194Z" fill="#222B45"/>
<path opacity="0.5" d="M25.224 35.234H10.51C4.9816 35.234 0.499973 30.7524 0.499973 25.224V10.51C0.499973 4.98163 4.9816 0.500004 10.51 0.500004H25.224C30.7524 0.500004 35.234 4.98163 35.234 10.51V25.224C35.234 30.7524 30.7524 35.234 25.224 35.234Z" stroke="#CED3DE"/>
</svg>
