<svg width="24" height="24" viewBox="0 0 24 24" fill="none" xmlns="http://www.w3.org/2000/svg">
<path fill-rule="evenodd" clip-rule="evenodd" d="M22.5977 10.4596L21.9764 12.7782C21.2513 15.4846 20.8886 16.8378 20.0666 17.7154C19.4176 18.4084 18.5776 18.8934 17.653 19.1089C17.5374 19.1359 17.4202 19.1567 17.2999 19.1714C16.2017 19.3069 14.8617 18.9478 12.4223 18.2942C9.71593 17.569 8.36271 17.2064 7.48508 16.3845C6.7921 15.7354 6.30715 14.8955 6.09156 13.9708C5.8185 12.7997 6.18109 11.4465 6.90627 8.74013L7.5275 6.42164C7.63177 6.03252 7.72861 5.67111 7.82033 5.33533C8.36647 3.33586 8.73348 2.23583 9.43727 1.48441C10.0863 0.791427 10.9263 0.306477 11.851 0.0908852C13.0219 -0.182169 14.3752 0.180415 17.0816 0.905596C19.7879 1.63078 21.1412 1.99336 22.0189 2.81536C22.7118 3.4644 23.1968 4.30436 23.4123 5.22902C23.6854 6.40007 23.3228 7.75327 22.5977 10.4596ZM10.8641 9.36812C10.9927 8.88794 11.4864 8.60298 11.9665 8.73165L17.7627 10.2848C18.2429 10.4134 18.5278 10.9069 18.3991 11.3871C18.2705 11.8673 17.777 12.1522 17.2968 12.0235L11.5005 10.4704C11.0204 10.3418 10.7354 9.8483 10.8641 9.36812ZM9.93183 12.8454C10.0605 12.3652 10.554 12.0803 11.0342 12.209L14.5119 13.1409C14.9921 13.2695 15.277 13.763 15.1483 14.2432C15.0197 14.7234 14.5262 15.0084 14.046 14.8797L10.5683 13.9478C10.0881 13.8192 9.80306 13.3256 9.93183 12.8454Z" fill="#1C274C"/>
<path d="M17.2998 19.1715C17.0496 19.9376 16.6096 20.6307 16.0182 21.1846C15.1405 22.0066 13.7873 22.3692 11.081 23.0944C8.37451 23.8195 7.02131 24.1822 5.85024 23.9091C4.9256 23.6935 4.08564 23.2085 3.4366 22.5156C2.6146 21.6379 2.25201 20.2848 1.52683 17.5784L0.905596 15.2599C0.180415 12.5535 -0.182169 11.2002 0.0908852 10.0293C0.306477 9.10457 0.791427 8.26461 1.48441 7.61556C2.36204 6.79357 3.71524 6.43098 6.42164 5.7058C6.93365 5.56861 7.39725 5.44439 7.82032 5.33499C7.82029 5.33513 7.82036 5.33487 7.82032 5.33499C7.72861 5.67078 7.63177 6.03255 7.5275 6.42168L6.90627 8.74016C6.18109 11.4465 5.8185 12.7998 6.09156 13.9709C6.30715 14.8955 6.7921 15.7354 7.48508 16.3845C8.36271 17.2064 9.71592 17.5691 12.4223 18.2942C14.8616 18.9478 16.2017 19.3069 17.2998 19.1715Z" fill="#8D93A5"/>
</svg>
