<svg width="98" height="100" viewBox="0 0 98 100" fill="none" xmlns="http://www.w3.org/2000/svg">
<path fill-rule="evenodd" clip-rule="evenodd" d="M94.157 43.5819L91.5682 53.2425C88.5469 64.5192 87.0357 70.1573 83.6109 73.8143C80.9066 76.7016 77.4067 78.7223 73.5542 79.6204C73.0727 79.7329 72.5841 79.8194 72.0831 79.8809C67.5071 80.4455 61.9239 78.9493 51.7598 76.226C40.483 73.2042 34.8447 71.6935 31.1878 68.2686C28.3004 65.5643 26.2798 62.0644 25.3815 58.2115C24.2438 53.332 25.7545 47.6938 28.7761 36.4172L31.3646 26.7568C31.7991 25.1355 32.2026 23.6296 32.5847 22.2305C34.8603 13.8994 36.3895 9.31594 39.322 6.18504C42.0262 3.29761 45.5261 1.27699 49.379 0.378688C54.2581 -0.759039 59.8967 0.75173 71.1735 3.77332C82.4497 6.79491 88.0884 8.30567 91.7453 11.7307C94.6326 14.435 96.6533 17.9349 97.5514 21.7876C98.689 26.667 97.1784 32.3053 94.157 43.5819ZM45.2671 39.0338C45.8031 37.0331 47.8599 35.8458 49.8606 36.3819L74.0113 42.8533C76.012 43.3894 77.1991 45.4456 76.6631 47.4463C76.127 49.447 74.0708 50.6342 72.0701 50.0981L47.9189 43.6269C45.9181 43.0908 44.731 41.0346 45.2671 39.0338ZM41.3826 53.5225C41.9187 51.5218 43.9749 50.3346 45.9757 50.8707L60.4663 54.7536C62.467 55.2897 63.6541 57.3459 63.1181 59.3466C62.582 61.3474 60.5258 62.535 58.5251 61.9989L44.0344 58.116C42.0337 57.5799 40.8461 55.5232 41.3826 53.5225Z" fill="#1C274C"/>
<path d="M72.0826 79.8814C71.0399 83.0733 69.2067 85.9611 66.7425 88.2694C63.0855 91.6943 57.4469 93.2049 46.1707 96.2268C34.8938 99.2481 29.2555 100.759 24.376 99.6211C20.5233 98.723 17.0235 96.7023 14.3191 93.815C10.8942 90.1581 9.38339 84.52 6.36181 73.2432L3.77332 63.5831C0.75173 52.3064 -0.759039 46.6677 0.378688 41.7887C1.27699 37.9357 3.29761 34.4359 6.18504 31.7316C9.84185 28.3066 15.4802 26.7958 26.7568 23.7742C28.8902 23.2026 30.8219 22.685 32.5847 22.2292C32.5845 22.2297 32.5848 22.2287 32.5847 22.2292C32.2025 23.6283 31.799 25.1357 31.3646 26.757L28.7761 36.4174C25.7545 47.6938 24.2438 53.3325 25.3815 58.212C26.2798 62.0644 28.3004 65.5643 31.1878 68.2686C34.8446 71.6935 40.483 73.2047 51.7598 76.226C61.9234 78.9493 67.507 80.4455 72.0826 79.8814Z" fill="#8D93A5"/>
</svg>
