<svg width="16" height="16" viewBox="0 0 16 16" fill="none" xmlns="http://www.w3.org/2000/svg">
<path d="M1.40625 6.59375H6.59375V1.40625C6.59375 0.629594 7.22334 0 8 0C8.77666 0 9.40625 0.629594 9.40625 1.40625V6.59375H14.5938C15.3704 6.59375 16 7.22334 16 8C16 8.77666 15.3704 9.40625 14.5938 9.40625H9.40625V14.5938C9.40625 15.3704 8.77666 16 8 16C7.22334 16 6.59375 15.3704 6.59375 14.5938V9.40625H1.40625C0.629594 9.40625 0 8.77666 0 8C0 7.22334 0.629594 6.59375 1.40625 6.59375Z" fill="white"/>
</svg>
