<svg width="24" height="22" viewBox="0 0 24 22" fill="none" xmlns="http://www.w3.org/2000/svg">
<path d="M18.6677 6.20602L14.8566 5.65222L13.1522 2.19882C12.4942 0.865256 10.5906 0.86476 9.9322 2.19878L8.2278 5.65222L4.41669 6.20602C2.94507 6.41982 2.35646 8.22999 3.42168 9.26842L6.17943 11.9566L5.52843 15.7522C5.27703 17.2178 6.81655 18.3371 8.13348 17.6449L11.5422 15.8528L14.951 17.6449C16.2695 18.338 17.8068 17.2145 17.5559 15.7522L16.9049 11.9566L19.6627 9.26842C20.7275 8.23035 20.1399 6.41995 18.6677 6.20602Z" fill="#1C274C"/>
<path d="M6.07469 1.58376L5.15443 0.317189C4.90461 -0.0265502 4.4234 -0.102791 4.07966 0.147033C3.73588 0.396812 3.65968 0.878019 3.90946 1.2218L4.82972 2.48837C5.07968 2.83229 5.56093 2.90826 5.90449 2.65853C6.24828 2.40879 6.32447 1.92754 6.07469 1.58376Z" fill="#1C274C"/>
<path d="M3.02064 12.9346C2.88931 12.5304 2.4553 12.3091 2.05106 12.4405L0.53187 12.9342C0.127715 13.0654 -0.0934342 13.4996 0.0378575 13.9038C0.16942 14.3087 0.604324 14.5289 1.00744 14.3978L2.52667 13.9041C2.93083 13.7729 3.15198 13.3388 3.02064 12.9346Z" fill="#1C274C"/>
<path d="M19.0049 0.147046C18.6611 -0.102779 18.1799 -0.0265824 17.9301 0.317202L17.0098 1.58377C16.76 1.92755 16.8362 2.40881 17.18 2.65854C17.5239 2.90841 18.0051 2.83203 18.2548 2.48838L19.1751 1.22182C19.4249 0.878032 19.3486 0.396824 19.0049 0.147046Z" fill="#1C274C"/>
<path d="M22.5523 12.9342L21.0331 12.4405C20.6289 12.309 20.1949 12.5304 20.0635 12.9346C19.9322 13.3387 20.1533 13.7728 20.5575 13.9041L22.0768 14.3978C22.4801 14.529 22.9148 14.3085 23.0463 13.9038C23.1776 13.4996 22.9565 13.0655 22.5523 12.9342Z" fill="#1C274C"/>
<path d="M11.5422 18.8994C11.1172 18.8994 10.7727 19.2439 10.7727 19.6689V21.2306C10.7727 21.6555 11.1172 22 11.5422 22C11.9671 22 12.3116 21.6555 12.3116 21.2306V19.6689C12.3116 19.2439 11.9671 18.8994 11.5422 18.8994Z" fill="#1C274C"/>
</svg>
