<svg width="36" height="36" viewBox="0 0 36 36" fill="none" xmlns="http://www.w3.org/2000/svg">
<path d="M22.7722 17.4194C22.7722 17.1893 22.6757 16.9592 22.4831 16.7838L16.4198 11.2634C16.0341 10.9122 15.4087 10.9122 15.0232 11.2634C14.6376 11.6144 14.6376 12.1837 15.0232 12.5349L20.3883 17.4194L15.0234 22.304C14.6378 22.6551 14.6378 23.2243 15.0234 23.5753C15.4089 23.9267 16.0343 23.9267 16.42 23.5753L22.4833 18.055C22.6759 17.8795 22.7722 17.6494 22.7722 17.4194V17.4194Z" fill="#222B45"/>
<path opacity="0.5" d="M10.51 35.234H25.224C30.7524 35.234 35.234 30.7524 35.234 25.224V10.51C35.234 4.98163 30.7524 0.500004 25.224 0.500004H10.51C4.98163 0.500004 0.5 4.98163 0.5 10.51L0.5 25.224C0.5 30.7524 4.98163 35.234 10.51 35.234Z" stroke="#CED3DE"/>
</svg>
