<svg width="17" height="17" viewBox="0 0 17 17" fill="none" xmlns="http://www.w3.org/2000/svg">
<path d="M7.32074 0.503571C3.36447 0.503571 0.141724 3.72631 0.141724 7.6826C0.141724 11.6389 3.36447 14.8679 7.32074 14.8679C9.01058 14.8679 10.5647 14.2757 11.793 13.2924L14.7834 16.2812C14.9343 16.4259 15.1358 16.5057 15.3449 16.5035C15.5539 16.5014 15.7538 16.4175 15.9017 16.2698C16.0496 16.1221 16.1338 15.9223 16.1362 15.7133C16.1387 15.5043 16.0591 15.3026 15.9147 15.1515L12.9243 12.1612C13.9084 10.931 14.5013 9.37439 14.5013 7.6826C14.5013 3.72631 11.277 0.503571 7.32074 0.503571ZM7.32074 2.09928C10.4146 2.09928 12.9041 4.5887 12.9041 7.6826C12.9041 10.7765 10.4146 13.2722 7.32074 13.2722C4.22684 13.2722 1.73741 10.7765 1.73741 7.6826C1.73741 4.5887 4.22684 2.09928 7.32074 2.09928Z" fill="#4B4B4B"/>
</svg>
