<svg width="22" height="24" viewBox="0 0 22 24" fill="none" xmlns="http://www.w3.org/2000/svg">
<path d="M19.1358 4.10152L12.9948 0.513065C11.8188 -0.171022 9.9777 -0.171022 8.80176 0.513065L2.60132 4.12552C0.142538 5.80574 0 6.05777 0 8.73411V15.2509C0 17.9272 0.142538 18.1913 2.64884 19.8955L8.78988 23.4839C9.38379 23.832 10.144 24 10.8923 24C11.6406 24 12.4008 23.832 12.9829 23.4839L19.1833 19.8715C21.6421 18.1913 21.7846 17.9392 21.7846 15.2629V8.73411C21.7846 6.05777 21.6421 5.80574 19.1358 4.10152Z" fill="#8D93A5"/>
<path d="M10.8923 15.8769C13.0334 15.8769 14.7692 14.1411 14.7692 12C14.7692 9.85887 13.0334 8.12308 10.8923 8.12308C8.75117 8.12308 7.01538 9.85887 7.01538 12C7.01538 14.1411 8.75117 15.8769 10.8923 15.8769Z" fill="#1C274C"/>
</svg>
