<svg width="23" height="24" viewBox="0 0 23 24" fill="none" xmlns="http://www.w3.org/2000/svg">
<path d="M1.4117 8.94218C2.17177 5.70185 4.70185 3.17177 7.94218 2.4117C10.2824 1.86277 12.7177 1.86277 15.0579 2.4117C18.2982 3.17177 20.8282 5.70185 21.5883 8.94219C22.1372 11.2824 22.1372 13.7177 21.5883 16.0579C20.8282 19.2982 18.2982 21.8282 15.0579 22.5883C12.7177 23.1372 10.2824 23.1372 7.94219 22.5883C4.70185 21.8282 2.17177 19.2982 1.4117 16.0579C0.862768 13.7177 0.862768 11.2824 1.4117 8.94218Z" fill="#8D93A5"/>
<path d="M7.45471 0.923077C7.45471 0.41328 7.04233 0 6.53363 0C6.02494 0 5.61255 0.41328 5.61255 0.923077H7.45471ZM5.61255 4.01692C5.61255 4.52672 6.02494 4.94 6.53363 4.94C7.04233 4.94 7.45471 4.52672 7.45471 4.01692H5.61255ZM17.1074 0.923077C17.1074 0.41328 16.695 0 16.1863 0C15.6777 0 15.2653 0.41328 15.2653 0.923077H17.1074ZM15.2653 4.01692C15.2653 4.52672 15.6777 4.94 16.1863 4.94C16.695 4.94 17.1074 4.52672 17.1074 4.01692H15.2653ZM2.22818 15.7919C1.71349 13.5414 1.71349 11.1991 2.22818 8.94865L0.432576 8.53622C-0.144192 11.0581 -0.144192 13.6825 0.432576 16.2043L2.22818 15.7919ZM20.4918 8.94866C21.0065 11.1991 21.0065 13.5414 20.4918 15.7919L22.2875 16.2043C22.8642 13.6825 22.8642 11.0581 22.2875 8.53622L20.4918 8.94866ZM14.6822 21.7595C12.497 22.2853 10.223 22.2853 8.03788 21.7595L7.60786 23.5547C10.0758 24.1484 12.6444 24.1484 15.1121 23.5547L14.6822 21.7595ZM8.03788 2.98101C10.223 2.4553 12.497 2.4553 14.6822 2.98101L15.1121 1.18586C12.6444 0.592135 10.0756 0.592135 7.60786 1.18586L8.03788 2.98101ZM8.03788 21.7595C5.16551 21.0686 2.90778 18.7634 2.22818 15.7919L0.432576 16.2043C1.26429 19.841 4.03727 22.6956 7.60786 23.5547L8.03788 21.7595ZM15.1121 23.5547C18.6827 22.6956 21.4557 19.841 22.2875 16.2043L20.4918 15.7919C19.8122 18.7634 17.5545 21.0686 14.6822 21.7595L15.1121 23.5547ZM14.6822 2.98101C17.5545 3.67206 19.8122 5.97713 20.4918 8.94866L22.2875 8.53622C21.4557 4.89956 18.6827 2.04489 15.1121 1.18586L14.6822 2.98101ZM7.60786 1.18586C4.03727 2.04489 1.26429 4.89956 0.432576 8.53622L2.22818 8.94865C2.90778 5.97712 5.16551 3.67206 8.03788 2.98101L7.60786 1.18586ZM5.61255 0.923077V4.01692H7.45471V0.923077H5.61255ZM15.2653 0.923077V4.01692H17.1074V0.923077H15.2653Z" fill="#1C274C"/>
<path d="M6.46927 9.90184C6.08589 9.57401 5.5087 9.61839 5.18009 10.0007C4.85147 10.3831 4.89587 10.9589 5.27926 11.2867L6.46927 9.90184ZM7.09331 11.6366L6.4983 12.329C6.84069 12.6218 7.34593 12.6218 7.68831 12.329L7.09331 11.6366ZM10.1264 10.2444C10.5098 9.91668 10.5542 9.3409 10.2255 8.95848C9.89699 8.57605 9.31977 8.53176 8.93638 8.85956L10.1264 10.2444ZM6.46927 15.1132C6.08589 14.7854 5.5087 14.8298 5.18009 15.2122C4.85147 15.5947 4.89587 16.1703 5.27926 16.4981L6.46927 15.1132ZM7.09331 16.848L6.4983 17.5404C6.84069 17.8332 7.34593 17.8332 7.68831 17.5404L7.09331 16.848ZM10.1264 15.4559C10.5098 15.1281 10.5542 14.5523 10.2255 14.1699C9.89699 13.7874 9.31977 13.7432 8.93638 14.071L10.1264 15.4559ZM12.579 10.2034C12.0741 10.2034 11.6647 10.6117 11.6647 11.1154C11.6647 11.6191 12.0741 12.0274 12.579 12.0274V10.2034ZM16.8457 12.0274C17.3506 12.0274 17.76 11.6191 17.76 11.1154C17.76 10.6117 17.3506 10.2034 16.8457 10.2034V12.0274ZM12.579 15.4148C12.0741 15.4148 11.6647 15.8231 11.6647 16.3268C11.6647 16.8305 12.0741 17.2388 12.579 17.2388V15.4148ZM16.8457 17.2388C17.3506 17.2388 17.76 16.8305 17.76 16.3268C17.76 15.8231 17.3506 15.4148 16.8457 15.4148V17.2388ZM5.27926 11.2867L6.4983 12.329L7.68831 10.9441L6.46927 9.90184L5.27926 11.2867ZM7.68831 12.329L10.1264 10.2444L8.93638 8.85956L6.4983 10.9441L7.68831 12.329ZM5.27926 16.4981L6.4983 17.5404L7.68831 16.1556L6.46927 15.1132L5.27926 16.4981ZM7.68831 17.5404L10.1264 15.4559L8.93638 14.071L6.4983 16.1556L7.68831 17.5404ZM12.579 12.0274H16.8457V10.2034H12.579V12.0274ZM12.579 17.2388H16.8457V15.4148H12.579V17.2388Z" fill="#1C274C"/>
</svg>
